PathFileType	4	(X/Y/Z)	TVC_32_BWA_08_walk_RCNL2025.trc
DataRate	CameraRate	NumFrames	NumMarkers	Units	OrigDataRate	OrigDataStartFrame	OrigNumFrames
100	100	9	27	mm	100	110	436
Frame#	Time	R_Shoulder			L_Shoulder			C7			J_Notch			R_Elbow			L_Elbow			R_Wrist			L_Wrist			R_Asis			L_Asis			R_Psis			L_Psis			Sacral			Thoracic			Sternum			R_Thigh_Lateral			R_Knee_Lateral			R_Shank_Lateral			R_Ankle_Lateral			R_Heel			R_Toe			L_Thigh_Lateral			L_Knee_Lateral			L_Shank_Lateral			L_Ankle_Lateral			L_Heel			L_Toe		
		X1	Y1	Z1	X2	Y2	Z2	X3	Y3	Z3	X4	Y4	Z4	X5	Y5	Z5	X6	Y6	Z6	X7	Y7	Z7	X8	Y8	Z8	X9	Y9	Z9	X10	Y10	Z10	X11	Y11	Z11	X12	Y12	Z12	X13	Y13	Z13	X14	Y14	Z14	X15	Y15	Z15	X16	Y16	Z16	X17	Y17	Z17	X18	Y18	Z18	X19	Y19	Z19	X20	Y20	Z20	X21	Y21	Z21	X22	Y22	Z22	X23	Y23	Z23	X24	Y24	Z24	X25	Y25	Z25	X26	Y26	Z26	X27	Y27	Z27
110	1.09000000	-1201.934570	1468.545410	465.274048	-1208.062012	1430.730225	86.314484	-1257.760498	1501.734253	273.942230	-1096.025391	1402.000488	286.388031	-1346.538818	1156.858154	593.618835	-1143.270752	1106.494629	-17.343336	-1334.454285	884.061432	545.449951	-926.150452	946.947662	19.935688	-1164.113403	987.380066	427.083160	-1196.162476	1006.967773	147.456955	-1361.590210	1016.729065	363.091522	-1372.417114	1021.203247	261.232330	-1367.003662	1018.966156	312.161926	-1336.650269	1246.461670	302.495209	-1077.409302	1255.040405	284.202972	-1173.713989	608.326233	479.485504	-1077.944946	503.053528	424.722534	-1057.034668	296.529633	482.016296	-964.518494	92.642761	412.400024	-1002.782654	49.716244	344.734833	-813.841187	103.544052	410.238190	-1315.901367	665.944458	101.272018	-1342.993286	503.372162	174.289429	-1399.632202	350.401520	115.786476	-1421.618042	75.859085	196.992325	-1492.068604	68.348152	242.784271	-1284.497314	41.633369	226.832687
111	1.10000000	-1193.902832	1467.231323	466.920441	-1199.998413	1429.972412	87.852539	-1249.685547	1500.807129	275.710510	-1087.823975	1401.175049	287.932007	-1340.062744	1156.111450	594.474365	-1135.906860	1105.347900	-15.266829	-1329.241211	883.269867	546.194702	-918.784576	946.068024	22.820912	-1155.693115	986.227478	427.553345	-1188.277588	1005.847717	148.188431	-1353.353149	1015.955933	364.023132	-1364.331543	1020.287842	262.153625	-1358.842346	1018.121887	313.088379	-1328.326050	1245.494751	303.626770	-1069.044189	1254.266113	285.376587	-1164.259277	608.603149	480.685242	-1070.512085	501.948486	425.428070	-1051.897461	295.059448	481.933777	-962.285339	90.637398	411.790070	-1001.232239	48.816910	344.031616	-811.563538	98.411781	409.110443	-1309.569336	665.250732	101.789589	-1338.444946	502.983521	174.834961	-1396.363159	350.538635	116.121101	-1421.276855	76.295815	197.082977	-1491.817383	69.128319	242.819626	-1284.482422	41.596493	226.906418
112	1.11000000	-1185.778198	1465.928589	468.615112	-1191.841309	1429.309570	89.403419	-1241.540527	1499.982788	277.512482	-1079.566772	1400.417847	289.495667	-1333.240601	1155.250977	595.371765	-1128.607300	1104.229248	-13.117638	-1323.658875	882.371826	547.024872	-911.755829	944.800690	25.705141	-1147.341553	985.218933	428.133667	-1180.319214	1004.759827	149.007217	-1345.161987	1015.290283	364.953064	-1356.236328	1019.447571	263.069611	-1350.699158	1017.368927	314.011337	-1319.982910	1244.648926	304.732727	-1060.643188	1253.567505	286.572449	-1154.666138	609.066833	482.114929	-1062.968872	500.988159	426.320160	-1046.723267	293.734741	482.045380	-960.672241	88.588531	411.238617	-1000.546143	48.059090	343.453827	-809.922119	92.724686	407.783356	-1303.085815	664.628601	102.391426	-1333.721191	502.673798	175.439545	-1392.981323	350.777161	116.500519	-1420.889160	76.870911	197.170563	-1491.511963	70.091003	242.859161	-1284.456177	41.564705	226.976212
113	1.12000000	-1177.560791	1464.677246	470.344757	-1183.583496	1428.771484	90.960068	-1233.319824	1499.291748	279.334290	-1071.254028	1399.756592	291.068298	-1326.066040	1154.306763	596.292847	-1121.368530	1103.171143	-10.900101	-1317.696960	881.394135	547.939575	-905.075958	943.161194	28.575847	-1139.074463	984.383850	428.835327	-1172.297241	1003.740234	149.923553	-1337.025024	1014.770874	365.895935	-1348.143311	1018.725098	263.993225	-1342.584167	1016.747986	314.944580	-1311.628906	1243.958984	305.816071	-1052.212036	1252.968628	287.785156	-1145.130493	609.651794	483.683563	-1055.387451	500.190979	427.343872	-1041.441772	292.597778	482.343536	-959.420532	86.589027	410.770966	-1000.418884	47.484177	343.032776	-808.667786	86.732063	406.326721	-1296.460083	664.116211	103.086891	-1328.795044	502.463379	176.103638	-1389.479614	351.141174	116.929771	-1420.446655	77.604156	197.255447	-1491.143433	71.266541	242.905685	-1284.413818	41.540909	227.038330
114	1.13000000	-1169.251343	1463.520142	472.096069	-1175.220337	1428.385986	92.517242	-1225.019897	1498.762329	281.162720	-1062.886597	1399.216797	292.640869	-1318.537476	1153.313599	597.220032	-1114.188354	1102.206665	-8.620315	-1311.344849	880.368042	548.937195	-898.758820	941.170288	31.420256	-1130.904541	983.748962	429.668610	-1164.222900	1002.828308	150.946075	-1328.948486	1014.433411	366.866302	-1340.063843	1018.163147	264.938049	-1334.506165	1016.298279	315.902176	-1303.273193	1243.456909	306.883240	-1043.758667	1252.491455	289.011200	-1135.816772	610.301636	485.309601	-1047.835815	499.570831	428.447174	-1036.026978	291.676514	482.806793	-958.321106	84.721046	410.398315	-1000.588013	47.120979	342.781616	-807.600525	80.674484	404.808990	-1289.702881	663.751709	103.880539	-1323.638672	502.369934	176.822418	-1385.847778	351.651917	117.409851	-1419.940796	78.512131	197.336456	-1490.702759	72.682144	242.960907	-1284.349243	41.527924	227.088135
115	1.14000000	-1160.852539	1462.499390	473.856476	-1166.749878	1428.176880	94.071838	-1216.639771	1498.420044	282.985809	-1054.466675	1398.821167	294.206604	-1310.659180	1152.309326	598.137939	-1107.065430	1101.368286	-6.286716	-1304.592957	879.328156	550.015198	-892.819580	938.853973	34.225054	-1122.841187	983.336853	430.642242	-1156.109375	1002.064453	152.081070	-1320.936035	1014.307800	367.877716	-1332.007935	1017.801697	265.917786	-1326.471985	1016.054749	316.897751	-1294.924683	1243.170532	307.944275	-1035.292236	1252.155640	290.249329	-1126.848511	610.973145	486.926697	-1040.376831	499.134644	429.583221	-1030.498047	290.981781	483.401459	-957.223328	83.049171	410.118530	-1000.846680	46.980873	342.696228	-806.575989	74.769188	403.291840	-1282.824341	663.570374	104.770897	-1318.224976	502.407104	177.584778	-1382.072998	352.326904	117.936714	-1419.363770	79.607132	197.410461	-1490.179565	74.360603	243.025146	-1284.255981	41.527966	227.120117
116	1.15000000	-1152.368652	1461.655762	475.614838	-1158.173950	1428.162720	95.622894	-1208.181641	1498.285034	284.793304	-1045.998169	1398.588745	295.761139	-1302.441528	1151.333374	599.034363	-1100.000244	1100.685669	-3.910502	-1297.432068	878.310760	551.170349	-887.273956	936.242920	36.976196	-1114.889282	983.164429	431.762695	-1147.971436	1001.488037	153.331635	-1312.988892	1014.415955	368.941956	-1323.984009	1017.674927	266.945526	-1318.486450	1016.045441	317.943741	-1286.592407	1243.121826	309.012543	-1026.823364	1251.977173	291.500916	-1118.305176	611.637939	488.486603	-1033.069824	498.880554	430.712311	-1024.915405	290.507019	484.084595	-956.036499	81.616516	409.918579	-1001.048462	47.056145	342.758209	-805.505859	69.199249	401.826508	-1275.832397	663.602173	105.749550	-1312.527100	502.583038	178.372345	-1378.140747	353.179260	118.500755	-1418.708252	80.896538	197.472351	-1489.563354	76.319565	243.097153	-1284.127563	41.542046	227.128250
117	1.16000000	-1143.806641	1461.025024	477.361816	-1149.499146	1428.355347	97.171539	-1199.651367	1498.372070	286.577332	-1037.487427	1398.533203	297.302521	-1293.901489	1150.423950	599.901672	-1092.996094	1100.183960	-1.505820	-1289.854248	877.352051	552.398621	-882.137360	933.372223	39.658837	-1107.048340	983.241699	433.033356	-1139.825684	1001.135010	154.697159	-1305.105591	1014.769592	370.068756	-1315.999023	1017.808960	268.033508	-1310.552307	1016.289276	319.051132	-1278.284790	1243.325439	310.104218	-1018.363037	1251.967896	292.769775	-1110.226196	612.282715	489.959198	-1025.970825	498.797424	431.803101	-1019.371521	290.230652	484.808685	-954.724792	80.443871	409.778381	-1001.106018	47.321499	342.939087	-804.352478	64.106796	400.451843	-1268.731079	663.868958	106.800842	-1306.519897	502.899628	179.159210	-1374.036011	354.217621	119.086800	-1417.967773	82.382851	197.515121	-1488.841797	78.571487	243.174286	-1283.958252	41.569283	227.106491
118	1.17000000	-1135.175903	1460.637329	479.090546	-1140.736816	1428.758789	98.720665	-1191.058472	1498.689209	288.332520	-1028.943481	1398.663452	298.831146	-1285.061646	1149.616333	600.737427	-1086.059204	1099.882202	0.910345	-1281.853333	876.485992	553.695465	-877.423798	930.280975	42.257387	-1099.312866	983.571045	434.453278	-1131.690063	1001.036011	156.172989	-1297.282349	1015.370239	371.265900	-1308.057983	1018.219727	269.192719	-1302.670166	1016.794983	320.229309	-1270.009277	1243.788086	311.237396	-1009.922791	1252.135498	294.061890	-1102.619141	612.907288	491.330505	-1019.133972	498.865448	432.833344	-1013.977661	290.119965	485.526794	-953.297852	79.531448	409.675079	-1000.984192	47.738007	343.205139	-803.118835	59.590290	399.194122	-1261.518066	664.383118	107.902092	-1300.178711	503.352051	179.911987	-1369.744385	355.446350	119.674522	-1417.135864	84.064461	197.530136	-1488.000732	81.124336	243.252823	-1283.744019	41.606369	227.049408
